# xmcd CD database file generated by Grip 3.3.1
#
# Track frame offsets:
#       150
#       17288
#       39400
#       54733
#       72711
#       93435
#       110682
#       125107
#       141927
#       159039
#       179452
#       201268
#
# Disc length: 2749 seconds
#
# Revision: 0
# Processed by: cddbd v1.5.2PL0 Copyright (c) Steve Scherf et al.
# Submitted via: Grip 3.3.1
#
DISCID=ab0abb0c
DTITLE=Stacey Cohen - Butterfly Kisses Squeeze My Mind
DYEAR=2009
DGENRE=Acoustic
TTITLE0=My Darling Love
TTITLE1=Fine Times
TTITLE2=Your Caravan
TTITLE3=Band Of Water (live)
TTITLE4=Sacred
TTITLE5=Butterfly Kisses
TTITLE6=Real Creature
TTITLE7=Count This One
TTITLE8=Stepa Dee
TTITLE9=Clam Song
TTITLE10=Truth Be Told (live acoustic)
TTITLE11=Peace
EXTD=
EXTT0=
EXTT1=
EXTT2=
EXTT3=
EXTT4=
EXTT5=
EXTT6=
EXTT7=
EXTT8=
EXTT9=
EXTT10=
EXTT11=
PLAYORDER=
